<svg xmlns="http://www.w3.org/2000/svg" width="20" height="20" viewBox="0 0 20 20"><defs><clipPath id="r59ka"><path fill="#fff" d="M0 2a2 2 0 0 1 2-2h16a2 2 0 0 1 2 2v16a2 2 0 0 1-2 2H2a2 2 0 0 1-2-2z"/></clipPath></defs><g><g><path fill="#fff" d="M0 2a2 2 0 0 1 2-2h16a2 2 0 0 1 2 2v16a2 2 0 0 1-2 2H2a2 2 0 0 1-2-2z"/><path fill="none" stroke="#ddd3c6" stroke-miterlimit="20" stroke-width="2" d="M0 2a2 2 0 0 1 2-2h16a2 2 0 0 1 2 2v16a2 2 0 0 1-2 2H2a2 2 0 0 1-2-2z" clip-path="url(&quot;#r59ka&quot;)"/></g></g></svg>