<svg xmlns="http://www.w3.org/2000/svg" width="24" height="24" viewBox="0 0 24 24"><defs><clipPath id="6i8ua"><path fill="#fff" d="M0 2.4A2.4 2.4 0 0 1 2.4 0h19.2A2.4 2.4 0 0 1 24 2.4v19.2a2.4 2.4 0 0 1-2.4 2.4H2.4A2.4 2.4 0 0 1 0 21.6z"/></clipPath></defs><g><g><path fill="#fff" d="M0 2.4A2.4 2.4 0 0 1 2.4 0h19.2A2.4 2.4 0 0 1 24 2.4v19.2a2.4 2.4 0 0 1-2.4 2.4H2.4A2.4 2.4 0 0 1 0 21.6z"/><path fill="none" stroke="#d5d5d5" stroke-miterlimit="20" stroke-width="2.4" d="M0 2.4A2.4 2.4 0 0 1 2.4 0h19.2A2.4 2.4 0 0 1 24 2.4v19.2a2.4 2.4 0 0 1-2.4 2.4H2.4A2.4 2.4 0 0 1 0 21.6z" clip-path="url(&quot;#6i8ua&quot;)"/></g><g><path fill="none" stroke="#d64c27" stroke-miterlimit="20" stroke-width="2.4" d="M7 11.99v0l2.994 3.12v0L16.104 9v0"/></g></g></svg>