 <svg
  xmlns="http://www.w3.org/2000/svg"
  width="20"
  height="20"
  viewBox="0 0 20 20"
>
  <path
    fill="#444"
    d="M9.997 1.838c2.67 0 2.985.01 4.04.058.974.044 1.503.207 1.856.343.466.181.8.398 1.15.747.349.349.566.681.747 1.147.137.351.3.88.344 1.852.048 1.053.058 1.368.058 4.032 0 2.664-.01 2.98-.058 4.032-.044.972-.207 1.5-.344 1.852a3.091 3.091 0 01-.748 1.147 3.09 3.09 0 01-1.15.747c-.352.136-.88.299-1.856.343-1.054.048-1.37.058-4.04.058-2.669 0-2.985-.01-4.039-.058-.974-.044-1.504-.207-1.856-.343a3.098 3.098 0 01-1.15-.747 3.091 3.091 0 01-.747-1.147c-.137-.351-.3-.88-.345-1.852-.048-1.052-.058-1.368-.058-4.032 0-2.664.01-2.98.058-4.032.045-.972.208-1.5.345-1.852a3.09 3.09 0 01.748-1.147c.35-.35.682-.566 1.149-.747.352-.136.882-.299 1.856-.343 1.054-.048 1.37-.058 4.04-.058m0-1.798C7.282.04 6.94.051 5.875.1c-1.064.048-1.79.217-2.427.464a4.9 4.9 0 00-1.77 1.15A4.89 4.89 0 00.525 3.483C.278 4.116.109 4.842.06 5.904.011 6.968 0 7.307 0 10.017c0 2.71.011 3.05.06 4.114.049 1.062.218 1.787.465 2.421a4.89 4.89 0 001.153 1.768 4.902 4.902 0 001.77 1.15c.636.247 1.363.416 2.427.464 1.066.049 1.407.06 4.122.06s3.055-.011 4.121-.06c1.065-.048 1.791-.217 2.427-.464a4.901 4.901 0 001.77-1.15 4.889 4.889 0 001.154-1.768c.247-.634.416-1.36.465-2.421.048-1.065.06-1.404.06-4.114s-.012-3.05-.06-4.113c-.049-1.062-.218-1.788-.465-2.422a4.89 4.89 0 00-1.153-1.767 4.9 4.9 0 00-1.77-1.151C15.908.317 15.182.148 14.117.1 13.052.051 12.712.04 9.997.04"
  ></path>
  <path
    fill="#444"
    d="M9.994 4.89a5.128 5.128 0 015.133 5.123 5.128 5.128 0 01-5.133 5.124 5.128 5.128 0 01-5.134-5.124A5.128 5.128 0 019.994 4.89m.005 8.449a3.332 3.332 0 003.337-3.326 3.332 3.332 0 00-3.337-3.325 3.332 3.332 0 00-3.338 3.325A3.332 3.332 0 0010 13.34M16.53 4.687c0 .661-.538 1.197-1.2 1.197a1.198 1.198 0 111.2-1.197"
  ></path>
</svg>