<svg
  xmlns="http://www.w3.org/2000/svg"
  width="77"
  height="44"
role="img" aria-label="Hermès Homepage" focusable="true" 
  viewBox="0 0 77 44"
  aria-hidden="false"
>
  <path
    fill="#444"
    d="M28.393 17.09c.12.14.257.266.407.374h-7.238c.119-.077.412-.33.434-.374zm-11.928.671l2.112.005c.784.338 1.684.34 2.465-.003h8.274c.689.317 1.572.332 2.269 0h27.25v.792h-42.37zm42.367-.664v-.002zm0 0v.367h-1.233c.019-.13.187-.323.415-.367zm-42.367-.007h1.131c.144.132.295.257.452.374h-1.583zm33.309 14.634V24.14l-.018-.452-.116.4-3.19 7.616h-.905l-3.179-7.613-.135-.396-.01.497v7.533h1.457v1.62h-4.661v-1.62h1.528v-8.192h-1.526v-1.63h4.165l2.76 6.683.056.334.057-.328 2.761-6.687h4.169v1.629h-1.529v8.191h1.529v1.622h-4.664v-1.622zm23.933-4.93c1.705.49 2.745 1.413 2.75 3.371 0 2.737-2.638 3.51-4.145 3.51-1.351 0-2.405-.41-3.208-1.025l-.015-.022a.686.686 0 01-.238-.26l.057.2.005.005v.756h-1.586v-4.042h1.518l.017-.008c.249 1.658 1.098 2.816 3.248 2.816 2.148 0 2.676-1.124 2.676-1.981 0-.906-.658-1.517-1.672-1.792-1.017-.275-1.638-.275-2.857-.598-1.217-.32-2.651-1.013-2.651-2.997 0-2.036 2.002-3.088 3.701-3.088 1.403 0 2.336.479 2.825.918 0 .004 0 .006.002.01.163.16.207.252.218.285l-.048-.226V21.9h1.543v3.33h-1.595v-.004l-.006.004c-.062-.966-1.149-2.063-2.81-2.063-1.659 0-2.125 1.12-2.125 1.552 0 .43.209 1.078 1.265 1.432 1.17.39 1.981.316 3.13.643zm-15.845-6.459h3.377l.843 1.004h-3.295zm-34.257 13.01h-9.424v-1.62h1.535v-8.192h-1.534v-1.63h9.404V25.1H21.98v-1.566h-4.574v2.759h3.904v1.615h-3.904v3.817h4.537v-2.19h1.663zm39.27-3.812h1.66v3.813h-9.406v-1.622h1.53v-8.191h-1.53v-1.63h9.384V25.1h-1.605v-1.566h-4.562v2.759h3.895v1.615h-3.894v3.817h4.527zM7.42 21.903h4.61v1.63h-1.47v8.191h1.467v1.622H7.418v-1.622h1.453v-3.8H3.7v3.8h1.449v1.622H.55v-1.622h1.463v-8.191H.55v-1.63h4.598v1.63H3.7v2.781h5.173v-2.781H7.418z"
  ></path>
  <path
    fill="#444"
    d="M57.158 7.302c-.046.039-.06.092-.024.1.07.012.11.037.19.111.044.022.033-.046.022-.083-.044-.106-.135-.17-.186-.128zm-40.383 6.516c.17-.062.377-.12.606-.174-.06.113-.113.23-.158.35-.156-.02-.316-.037-.447-.062-.111-.02-.084-.084 0-.114zm1.677-.542c-.044-.085-.046-.165-.022-.193.104-.077.216-.145.334-.205.093.108.2.216.318.321-.212.02-.422.044-.63.077zm.71-.553c.05.006.144.081.17.194l.032.179a2.7 2.7 0 01-.307-.339l.107-.033zm1.174-.022c.04.03.094.149.06.259l-.074.209c-.202-.01-.402-.02-.603-.018-.053 0-.102.011-.155.011l-.051-.282c-.02-.13.04-.213.085-.234.065-.005.126-.02.19-.02.19 0 .371.03.548.074zm.181.473l.055-.157c.047-.126.152-.169.2-.16.212.101.407.235.578.395a11.031 11.031 0 00-.834-.077zm2.17.487c.084.028.114.085.006.115-.114.03-.251.055-.382.082-.049-.116-.114-.223-.178-.33.205.04.393.083.552.132zm-.68.689c0 .053-.076.147-.19.17l-1.332.208a.036.036 0 01-.04-.022.702.702 0 00-.054-.132c-.011-.014-.007-.03.005-.044l.396-.338a15.86 15.86 0 001.126-.127c.036.094.062.187.088.286zm-.003 1.124c-.018.042-.131.104-.248.066l-1.262-.455c-.014-.005-.028-.022-.025-.039.006-.042.01-.061.01-.106 0-.018.016-.028.031-.033l1.331-.21c.131-.016.214.047.227.092.003.044.011.088.011.132 0 .19-.028.374-.073.552zm-.142.414a1.691 1.691 0 000 .001zm-.387.585c-.04.026-.17.017-.252-.069l-.884-1.002c-.011-.011-.016-.034-.004-.048a.42.42 0 00.057-.086c.008-.017.027-.02.042-.012l1.268.457c.131.052.164.158.153.2a2.412 2.412 0 01-.375.56zm-2.242.676c-.042-.025-.099-.14-.064-.252l.452-1.269a.032.032 0 01.036-.024c.04.008.076.011.123.011.018 0 .03.016.033.033l.243 1.323c.02.127-.038.21-.082.237-.061.004-.122.019-.185.019-.193 0-.377-.03-.554-.078zm-1.076-.623c-.024-.038-.007-.176.085-.253l1.033-.83c.01-.016.03-.02.044-.006a.67.67 0 00.115.084c.017.01.022.022.014.042L19 16.82c-.048.127-.149.176-.193.168a2.323 2.323 0 01-.649-.462zm-.559-.977c.004-.05.08-.149.192-.174l1.302-.24a.034.034 0 01.039.022c.013.038.017.055.041.095.008.015.004.03-.01.044l-1.036.838c-.111.085-.23.066-.257.033-.119-.192-.21-.4-.27-.618zm-.022-1.181c.025-.041.142-.092.253-.055l1.25.448c.014.005.027.022.024.039a.726.726 0 00-.01.123c0 .018-.015.028-.03.033l-1.306.244c-.129.019-.219-.044-.237-.088-.006-.066-.019-.127-.019-.193 0-.19.029-.374.075-.553zm1.989-.113c-.004.005 0 .014-.007.016a.68.68 0 00-.13.064c-.016.01-.033.003-.044-.01l-.061-.067c.08-.003.163 0 .243-.004zm-.15-.89l.132.725c-.125.003-.25.003-.378 0l-.589-.649c.27-.033.547-.058.834-.077zm.581.718v-.001h.002zm-.254.007h-.004l-.136-.737c.043-.002.082-.007.124-.01.18 0 .356.006.532.01l-.261.729c-.087.002-.17.007-.255.008zm.493.305a.516.516 0 00-.098-.071c-.017-.01-.022-.022-.015-.041l.019-.05.344-.018-.207.176c-.011.01-.028.015-.041.004zm-.995.05c.01.01.015.035.005.048-.027.033-.037.044-.059.085-.007.015-.026.017-.043.01l-.99-.356c.305.018.612.026.919.026zm1.899 2.32a2.28 2.28 0 01-.731.356c-.048-.007-.14-.082-.166-.192l-.24-1.312c-.004-.016.002-.037.019-.044a.587.587 0 00.13-.061c.015-.011.033-.004.044.008l.89.986c.087.103.083.222.054.258zm.152-3.239l-.615.528c-.157.011-.317.015-.477.022l.251-.72c.312.012.615.034.898.062-.013.039-.024.077-.055.108zm.387.097c.068.099.122.204.175.313-.273.041-.563.072-.868.096l.433-.374c.109-.088.232-.07.259-.035zm-3.312-.154l.554.621a19.112 19.112 0 01-1.156-.047c-.028-.04-.044-.077-.036-.099.07-.15.157-.288.256-.418.124-.022.253-.038.382-.055zm2.14-3.927c.15.092.21.335.376.473.27.458.78.611 1.05 1.008a.895.895 0 01-.272-.02c-.176-.036-.246-.089-.394-.155-.078-.13-.275-.173-.43-.089a2.126 2.126 0 01-.69-.055c.044-.368.392-.72.36-1.163zM18.781 7.19c-.137-.183-.337-.462-.182-.652.114-.141.347-.031.484.03.115.061 1.024.55 1.271.619 1.835.457 4.153-.217 5.608 1.103.072.066.123.129.108.22-2.135-1.456-5.349.697-7.288-1.32zm20.323-.414l-.002.001zm-.614 2.995c-.187.136-.418.25-.568.334-.088-1.176.039-2.93 1.18-3.328-.811.816-.707 2.035-.612 2.994zm-6.025 4.12a2.38 2.38 0 00-.358-.424c.515-.028.935 0 1.19.105-.115.055-.42.174-.832.32zm3.016-1.281c-.535.387-.283.843-.614.935-.12-.018-.793.105-.898.154-.227-.213-.458-.392-.807-.484.663-.273 1.714-.544 2.319-.605zm-3.224 1.77c0 .04-.06.1-.1.116l.076-.026-1.227.464c-.013.006-.033-.01-.042-.022a1.212 1.212 0 00-.087-.107c-.014-.01-.024-.041-.019-.055l.106-.161c.374-.1.776-.227 1.202-.374.033.055.066.11.092.167zm.144 1.238c-.02.033-.108.044-.151.033l-1.177-.33c-.015-.003-.022-.028-.022-.044a1.04 1.04 0 00-.009-.137c-.003-.016.006-.049.019-.055l1.143-.44c.04-.016.12-.008.146.02.051.18.087.366.087.564 0 .132-.014.264-.038.39zm-.68.989l-.805-.95c-.011-.01-.003-.034.006-.049a.862.862 0 00.058-.102c.008-.014.033-.035.05-.033l1.19.335c.037.011.099.052.112.089a2.071 2.071 0 01-.466.765c-.033.02-.115-.022-.145-.055zm-3.069-.47c0-.037.06-.095.099-.112l1.136-.481c.01-.007.032.01.041.022.02.024.05.06.077.088.013.011.024.045.017.056l-.677 1.049c-.024.037-.098.077-.133.066a2.004 2.004 0 01-.557-.687zm-.188-1.237c.163.009.33.007.499.003l.854.235c.01.003.02.028.02.044 0 .033.005.12.015.16 0 .014-.011.027-.025.032l-1.138.503c-.042.016-.125.015-.15-.013a2.009 2.009 0 01-.112-.632c0-.114.015-.223.033-.33zm-.932-.314c-.106-.033-.081-.066-.017-.093a12.1 12.1 0 01.709-.253c-.063.14-.11.288-.147.44a3.032 3.032 0 01-.545-.092zm2.909-1.153l-.003-.077c-.002-.047.033-.128.068-.136.207.006.403.046.589.11-.218.029-.434.062-.654.101zm1.226.209a2.1 2.1 0 01.382.388c-.295.099-.6.193-.903.286l.392-.605c.022-.036.092-.077.129-.07zm-1.174.85l-.038-.81c.334-.065.662-.117.975-.155a.289.289 0 01-.028.097l-.494.757c-.146.044-.282.077-.415.11zm-.512.32c-.002.008 0 .015-.005.022a.939.939 0 00-.07.118c-.007.014-.033.035-.05.033l-.397-.11c.17-.018.343-.033.523-.064zm.054-.22l-.554-.7c.268-.066.539-.126.809-.18l.037.82a5.48 5.48 0 01-.292.06zm.171-1.353c.033.013.065.084.065.126l.006.097c-.327.064-.648.136-.955.215-.02-.04-.03-.088-.013-.11.261-.18.567-.29.894-.327zm-1.54 1.419c-.044-.013-.11-.073-.107-.11.062-.172.142-.333.246-.48.163-.047.333-.092.502-.136l.546.693-.025.003a9.097 9.097 0 01-.998.07l-.164-.043zm1.708 2.582a1.977 1.977 0 01-.901-.256c-.022-.03-.015-.112.01-.148l.674-1.036c.007-.011.033-.011.048-.007.029.009.095.028.133.033.015 0 .044.022.044.036l.06 1.243c.002.044-.033.121-.069.132zm1.256-.394v-.001l.002-.001zm-.954.376c-.035-.01-.066-.082-.068-.126l-.057-1.24c-.002-.013.02-.028.033-.033a1.28 1.28 0 00.148-.064c.014-.008.047-.01.058 0l.807.944c.028.035.054.11.034.142a1.957 1.957 0 01-.955.377zm20.053-2.229c-.175-.48-.683-1.812-1.045-3.014.22-.217.389-.104.535.493.139.482.307.88.434 1.283.168.405.296.944.425 1.227 0 0 .114.02.177.173.318.891.401 1.034.348 1.459.076.333.543.061.5.473h-.99l.436-.004c-.3-.319-.088-.794-.513-1.037-.058-.482-.085-.823-.307-1.053zm-3.268-3.842c-.625-.314-.235-.05-.054-.187.99.458 1.488.352 2.23.262.106.136.252.264.252.445-.907.259-1.612-.077-2.429-.519zm2.296-8.778c.198-.003.486.128.866-.046 0 0 .118.359.235.946-.284.239-.578.47-.774.607-.205-.418-.371-.86-.327-1.507zM50.11.537c.036.028.007.139.004.176 0 .038-.165.117-.165.117s-.157-.121-.155-.159l-.008-.003a1.59 1.59 0 01.09-.18c.065-.021.198.023.234.05zm1.44 1.561c.022.129.074.275.15.385-.003.06-.324.36-.695.677-.092-.459-.185-.775-.207-.9.147-.106.545-.22.752-.162zm-.01-.45c.065-.028.249.043.324.063.046.011.028.11.005.198-.113.024-.29-.039-.314-.099-.032-.066-.078-.134-.014-.163zm-.186 6.009c.392.43 1.329 1.082 1.928 1.295l-1.736.323c.197-.738-.472-1.022-.193-1.618zm-34.292 7.265a2.735 2.735 0 005.467.001c0-.323-.066-.63-.17-.918.315-.055.623-.121.927-.206.143-.039.137-.104.025-.138-.405-.124-.836-.22-1.276-.301a2.728 2.728 0 00-2.238-1.17 2.68 2.68 0 00-.99.192c-.005-.002-.01-.009-.011-.01a.83.83 0 01-.033-.74c.278-.453.895-.63 1.402-.673.17-.01.58.01.624.06.099.078.27.107.45.043.175.066.219.118.417.18 1.742.593 3.671.907 5.62.55.305.288.473.794.687 1.143.057.088.126-.066 1.087-.099.338-.013.754-.01 1.116-.002a2.415 2.415 0 00-1.773 1.113c-.6.192-1.064.374-1.238.48-.213.129-.253.2 0 .266.306.08.603.132.9.168-.02.121-.038.246-.038.372a2.426 2.426 0 104.852 0c0-.418-.116-.806-.302-1.15.306-.11.627-.23.968-.362.264.095.444.253.633.473.154.174.503.105.71.055.335-.088.387-.356.384-.66 0-.139.007-.275.073-.385.393-.895 1.962-1.012 2.767-1.21 0 0-.42.506-.719.618-.06 1.306-.56 2.442-.621 3.687.38.016.363.44.454.682-.106.229-.288 0-.454.077-.577-.319.136-.834-.335-1.229.242-1.045.638-2.062.605-3.17-.15.016-.209.183-.272.304-.106 1.048-.409 2.004-.681 2.974.12.06.333.121.319.304-.366.228.014.594-.138.853h-3.745l-.416.374h5.744l.055-.21c-.847-.88-.528-2.2-.135-3.202l.985-1.335c.82-.32 1.32-1.32 2.185-1.64 0 .427-.532.61-.82.851-.301.713-1.258.789-1.395 1.579.363.424.908.697 1.364 1.092.471.29.302.895.682 1.199.062.091 0 .228-.107.304-.4.095-.388.365-.147.59.154.142.33.33.31.4h-2.65c0 .12.107.167.224.374h14.64c.11-.207-.128-.451-.23-.655-1.034-.39-1.029-1.368-1.09-2.446.012-.044-.059-.147-.048-.369-.154-.145-.833-1.875-.524-3.23l.225-.445c.212-.305-.013-.467.138-.785l3.085-.597c.055-.028.04-.154-.018-.21l-.937.173C52.892 8.593 51.8 7.9 51.08 6.96a11.074 11.074 0 00-.039-3.586c.451-.374.819-.728.819-.728.311.187.378.099.421-.002-.05-.058-.511-.253-.435-.454.291.077.356-.013.401-.176l-.205-.072h-.006l.033-.11c.06-.121.334-.007.44-.038.184-.112-.022-.28.04-.432-.43-.363-1.204-.374-1.673-.712-.145-.27-.204-.385-.356-.495-.156-.11-.836-.172-.962-.132-.125.044-.363.268-.363.268-.488.102-.781-.055-1.117-.259a.8.8 0 00.455.548c-.338.139-.488.425-.543.783-.466.095-.484.56-.423.77-.382.228-.345.53-.21.836-.34.23-.289.56-.192.811-.286.176 0 .664.044.95.822-.169 1.848 1.645 3.322 1.868.277-1.295-.07-1.93-.39-2.568.24-.14.501-.333.754-.535.148.82.253 2.006.088 3.363-.01-.011-.022-.02-.028-.031-.093 0-.185-.062-.26-.091.015.044.185.313.15.363 0 0-.477.315-1.424-.083-.253.592-3.504 2.046-3.504 2.046.12.898.547 1.494.987 1.98.699.517 1.445.783 2.326.966.185.477.78 2.066.836 2.321.06.255.201.255.201.255.085.115.363.62.394.864l.07.858c.029.195.285.048.334.215l-.12.577-9.74.002c.137-.682-.21-1.278-.03-1.886-.392-.682-1.455-1.152-1.274-2.048.517-.713 2.123-1.408 1.76-2.269 1.46-.74 2.23.495 3.612.404.482-.027 1.019-.08 1.46-.21-.546-.472-1.067-1.168-1.342-1.789-2.898 1.166-5.716 2.126-8.857 2.763l-.242-.077c-.239.036-3.7.814-4.617 1.172a2.411 2.411 0 00-.78-.3h.08c.293 0 .742-.157 1.06-.268 1.344-.49 1.839-2.405 2.442-3.621.528 1.892 1.753 2.046 2.464 1.81l.066.594s.62-.022 1.087-.209c-.048-.112-.11-.412-.154-.807.282-.146.435-.253.564-.328.038.45.066.873-.068 1.1l1.599-.427c.308-1.382 1.144-3.304 2.621-4.708-1.983-.788-3.47.113-3.846.473-1.867.597-1.942 3.173-1.886 4.06-.323.063-1.68.534-2.323-1.816.374-.902 1.084-1.905 1.881-2.687.07-.058-.01-.15-.17-.057-1.603 1.1-2.19 3.036-3.05 4.67-.676 1.016-1.588 1.566-2.955 1.508-1.707-.027-2.533-1.808-3.316-2.964-1.199-2.626-4.3-1.683-6.606-2.244-.129-.066-.385-.825-.752-.796-.261.02-.016.288-.165.378-.29-.12-.533-.333-.896-.273-.228.047-.29.289-.273.502.182.834 1.076 1.199 1.744 1.503.256.382.16 1.705-.053 2.159-.275.506-1.356.325-1.573 1.485a.98.98 0 00.108.632c-.42.221-.776.547-1.032.946-.459.11-.906.234-1.324.383-.11.04-.11.104.033.137.32.065.65.12.983.162a2.728 2.728 0 00-.122.766z"
  ></path>
  <path
    fill="#444"
    d="M38.919 40.234c1.058 0 1.359-.515 1.351-1.065-.011-.614-.394-.988-1.351-.988h-.634v2.054h.633zm2.741 2.388c.117.182.239.36.366.534l.508.761h-1.156l-.864-1.344c-.905-1.342-1.317-1.496-1.82-1.496h-.413v2.842h-.985v-6.542h1.73c1.387 0 2.252.7 2.252 1.831 0 .756-.412 1.324-1.144 1.6.621.395 1.002 1 1.526 1.814zm8.423-3.712c.001 1.257 3.078 1.237 3.074 3.319 0 1.024-.844 1.774-1.991 1.774-.773 0-1.396-.192-1.991-.605V42.21c.522.61 1.176.946 1.877.946.793 0 1.157-.46 1.157-.823 0-1.353-3.076-1.507-3.076-3.3 0-1.065.855-1.744 2.159-1.744a3.03 3.03 0 011.586.459v1.067c-.603-.528-1.188-.682-1.67-.682-.655 0-1.124.315-1.125.777zm-4.992-1.534h.96v6.542h-.96zm-12.2 3.757l-1.087-2.575-1.008 2.575zm-.738-3.796l3.01 6.578h-1.065l-.819-1.928h-2.862l-.79 1.928h-1.045l2.892-6.578zm-6.626 2.906c.72 0 1.18-.375 1.18-1.03 0-.477-.264-.994-1.14-.994H24.37v2.024zm.039-2.868c1.469 0 2.138.846 2.138 1.884 0 1.029-.708 1.833-2.267 1.833h-1.071v2.836H23.4v-6.552h2.166zm7.176-10.84c.926 0 1.69-.648 1.69-1.481 0-.721-.378-1.163-.782-1.368-.33-.168-.755-.157-1.095-.157h-3.29v3.004h3.477zm2.891 2.847l.044 2.346h1.468v1.62h-3.14l-.079-3.894c-.022-.613-.44-1.326-1.523-1.34h-3.141v3.613h1.421v1.623H26.14v-1.622h1.44v-8.2h-1.44V21.9h6.398c.812 0 1.626.112 2.312.61.733.533 1.165 1.344 1.165 2.348 0 1.358-.754 2.165-1.376 2.442a.064.064 0 00-.02.004c-.19.08-.393.09-.542.082.175.014.344.069.494.16.615.372 1.062 1.164 1.062 1.835zM49.166 6.83v-.001zm0 0c-.905.799-2.056 1.335-3.23 1.898-.031-.85-.111-2.134.097-2.772.174-.125.657-.513.664-.785 0 0-.172-.292.006-.669-.102-.127-.537-.448-.186-.825-.285-.243-.155-.642.06-.864-.133-.207-.295-.591.135-.847-.21-.422.135-.594.313-.836-.27-.062-.503-.469-.503-.469.503.286 1.196-.04 1.722.014-.105.122-.377.152-.544.23-1.288 1.673-.88 3.26-.797 4.196.86-.086 1.473 1.182 2.262 1.728zm-8.708 3.8c.209-1.316 1.48-3.835 2.57-4.54.918.245 1.709.234 1.709.234-.055.886-.198 1.287.45 2.673-1.556.654-2.851 1.105-4.729 1.633zm5.073-1.804c-.316-.18-.381-.718-.51-1.31-.073-.515.016-.696.09-1.243l.488-.12c.053.265-.145.486-.149.773.3.696.035 1.248.082 1.9zm10.275 6.545c.109-.007.207-.073.278-.112a.938.938 0 00-.21-.495l-.317.132c.05.116.17.383.249.475zm-.572-1.35c.034.178.121.38.235.624.228 0 .419-.188.212-.326.543-.258-.12-.183.087-.306.332-.194.489-.781.522-1.188-.002-.05.056-.107.103-.105.279.676.261 1.528.694 2.15.043-.01.198-.006.24-.05-.125-.171-.12-.344-.142-.556 0-.161.085-.389.19.158.134.05.322-.937.347-1.29-.764.172 0-.765-.579-.787l.306-.48c-.013-.175-.142-.288-.34-.241-.184.124-.177.386-.17.619-.296.528-.16-.303-.477-.31-.205.128-.281-.205-.426-.154-.351 1.22-.88 1.843-.803 2.244zm1.297-2.947a1.61 1.61 0 00-.377.539c-.002.024.12.05.147.027.119-.099.195.119.4.088.086-.093.328-.12.25-.319-.113-.029-.27-.199-.419-.334zm.633-2.49c-.044.193-.459.192-.429.663.294-.476.981-.403 1.012-.982-.116-.304.146-.107.179-.442-.114-.08-.345-.335-.389-.454-.014-.044.11-.288-.443-.31-.037.059-.106.301-.183.418-.043.062-.095.151-.084.176.029.058.104.093.084.275-.013.146-.011.25.097.304.331.175.561.021.228.235-.017.025-.043.095-.072.117zm-.01 6.995c.391.033.366-.033.265-.506-.083.013-.247-.05-.334.035-.026.142.016.334.068.469zm-1.648 1.518c.014-.099.19-.052.409-.382-.016-.998-1.024-2.463-.844-2.97.217-.613.478-1.103.798-1.952a4.98 4.98 0 00-.005-.92c.261-1.42.53-1.378.58-1.81 0-.143.624-.475.6-.66a.189.189 0 00-.055-.055c-.066-.024-.252-.148-.197-.315.051-.157.025-.26-.047-.325-.032-.03-.021-.084.003-.135.046-.102.071-.135.099-.22-.222-.172-.263-.491-.143-.59.124-.132.534.025.545.01.35-.272.478-.485.669-.591.323 0 .875.514.897.858-.064.13-.275.32-.619.731.113.283.124.509-.103.665-.02-.006-.094.025-.19-.05.042.374.507.638.642.977.026.654.725 1.5-.068 2.024-.153.091-.32.217-.411.377.151.689.39 1.386.48 2.057l-.752.069c-.103.256-.36.67-.254.941.002-.003.014-.003.049.019.094.146.164 1.51.112 1.637-.027.182.138.172.033.475-.096.023-.392.221-.432.382-.228.194-.78.23-.788.148-.013-.233.407-.459.459-.706.085-1.001-.008-2.006-.512-2.794-.216-.086-.38.236-.512.376.201.63.584 1.317.545 2.005-.01.231.225.484.11.77l-.659.322h-2.353c-.099-.114-.269-.22-.242-.367h2.156z"
  ></path>
</svg>
