<svg role="img" aria-label="Hermès Homepage" focusable="true" xmlns="http://www.w3.org/2000/svg" width="60" height="26" viewBox="0 0 60 26"><g><g><g ><path d="M17.55 23.29c.167.208.355.393.562.553H8.118c.164-.114.568-.488.599-.553zm-16.47.99l2.916.009c1.082.496 2.324.5 3.402-.005H18.82c.951.466 2.17.488 3.132 0h37.619v1.164H1.08zm58.5-.984h-.002v-.001zm-.002 0v.54h-1.7c.025-.192.258-.475.572-.54zM1.08 23.29h1.552c.198.195.405.38.62.553H1.08z"/></g><g ><path d="M54.9 23.61h-3.01c-.037.198.2.342.337.495h3.286l.918-.433c.163-.387-.165-.728-.153-1.04.055-.93-.479-1.856-.76-2.707.183-.189.413-.624.714-.508.704 1.063.834 2.42.715 3.772-.072.334-.658.638-.64.953.011.11.78.063 1.1-.2.056-.217.469-.484.602-.516.147-.408-.082-.395-.046-.641.074-.17-.024-2.012-.156-2.21-.049-.03-.066-.03-.069-.025-.147-.365.211-.925.355-1.271l1.05-.092c-.125-.906-.459-1.848-.67-2.777.128-.217.361-.387.574-.51 1.106-.708.131-1.85.095-2.732-.189-.458-.838-.814-.897-1.32.134.102.237.06.266.068.317-.211.302-.516.144-.897.48-.556.774-.811.863-.988-.03-.465-.8-1.158-1.252-1.158-.266.142-.444.43-.933.799-.016.019-.588-.193-.76-.015-.17.134-.111.564.198.797-.038.115-.073.16-.138.297-.033.069-.049.141-.004.182.1.089.137.227.066.44-.077.225.183.391.275.424a.26.26 0 0 1 .077.074c.033.25-.84.698-.84.891-.068.584-.443.526-.807 2.443.046.465.04.876.006 1.243-.447 1.147-.811 1.807-1.114 2.636-.251.683 1.157 2.661 1.178 4.01-.306.445-.55.381-.57.515zM41.012 12.42c-.066-.874.306-1.615-.115-2.549.004-.385.283-.681.208-1.037l-.685.16c-.104.735-.23.978-.127 1.67.18.793.273 1.515.717 1.758zm-7.077 2.452c2.62-.712 4.429-1.32 6.6-2.203-.904-1.87-.705-2.41-.628-3.605 0 0-1.103.015-2.386-.315-1.52.95-3.295 4.347-3.586 6.122zm12.141-5.125v.001zm-3.161-2.335c-.117-1.263-.685-3.408 1.114-5.67.233-.103.613-.143.76-.308-.736-.075-1.704.367-2.406-.02 0 0 .325.55.702.633-.248.327-.73.56-.437 1.13-.6.346-.374.865-.188 1.144-.3.3-.483.84-.085 1.168-.49.51.118.942.26 1.115-.247.51-.008.903-.008.903-.01.367-.684.892-.927 1.061-.291.862-.18 2.596-.135 3.745 1.639-.76 3.248-1.486 4.51-2.566-1.103-.737-1.958-2.45-3.16-2.335zM.957 19.188c.24-.082.53-.16.852-.233-.085.152-.159.308-.222.47-.22-.026-.444-.05-.628-.083-.157-.027-.118-.112 0-.154zm2.338-.733c-.062-.115-.065-.221-.031-.26.146-.103.305-.194.472-.274.132.145.284.29.45.431-.299.027-.597.06-.891.103zm.99-.747c.07.008.203.109.238.258l.046.24a3.675 3.675 0 0 1-.432-.452l.15-.044zm1.64-.026c.057.04.132.2.084.347l-.104.28c-.283-.012-.564-.026-.847-.024-.074 0-.143.015-.218.015l-.072-.378c-.028-.174.057-.286.12-.314.092-.007.177-.027.268-.027.266 0 .52.04.769.1zm.242.636l.077-.211c.067-.168.214-.226.282-.216.297.138.571.316.812.532-.39-.049-.78-.083-1.172-.104zm3.03.66c.12.036.16.113.009.153-.16.041-.353.074-.537.11-.069-.156-.16-.299-.25-.442.289.053.552.11.776.177zm-.955.926c0 .07-.107.196-.267.225l-1.854.279a.051.051 0 0 1-.055-.03.914.914 0 0 0-.077-.175c-.015-.02-.009-.04.008-.059l.552-.452c.527-.038 1.05-.095 1.567-.168.05.124.088.249.123.381zm.008 1.511c-.025.056-.184.138-.348.088l-1.769-.607c-.02-.006-.038-.03-.035-.051.01-.056.015-.082.015-.143 0-.023.022-.036.043-.043l1.865-.279c.184-.022.3.062.319.122.003.058.015.117.015.176 0 .253-.04.498-.102.736zm-.204.565a.414.414 0 0 0 .008-.013.108.108 0 0 1-.001.044 3.207 3.207 0 0 1-.528.746h-.008c-.057.034-.239.022-.354-.091L5.917 21.33c-.015-.015-.021-.045-.004-.064a.558.558 0 0 0 .08-.115c.01-.022.037-.027.058-.015l1.786.609c.144.054.204.151.216.218l-.007.015zm.084-.184zm-3.751 1.876c-.058-.034-.138-.187-.089-.338l.634-1.695a.044.044 0 0 1 .05-.032c.058.01.108.014.174.014.026 0 .041.021.046.045l.342 1.768c.027.17-.054.28-.115.316-.086.006-.172.025-.26.025-.272 0-.53-.04-.78-.103zm-1.5-.827c-.034-.05-.01-.237.12-.34l1.449-1.117c.015-.02.041-.025.061-.007a.942.942 0 0 0 .163.114c.023.011.03.03.018.056l-.628 1.689c-.068.17-.209.236-.272.225a3.262 3.262 0 0 1-.91-.622zm-.779-1.32c.006-.066.112-.198.27-.232l1.823-.32a.048.048 0 0 1 .056.03c.018.05.024.073.058.126.01.02.004.04-.015.058L2.84 22.304c-.156.113-.321.088-.36.044a3.124 3.124 0 0 1-.38-.823zm-.03-1.59c.034-.055.197-.123.353-.074l1.744.602c.02.006.038.03.033.052a.939.939 0 0 0-.015.165c0 .024-.02.037-.041.045l-1.822.327c-.18.025-.305-.059-.33-.118-.008-.088-.027-.171-.027-.26 0-.255.04-.502.104-.74zm2.778-.155c-.005.006 0 .018-.01.02a.975.975 0 0 0-.183.086c-.022.015-.046.005-.062-.011l-.085-.092c.113-.003.23 0 .341-.004zm-.207-1.2l.187.974a15.92 15.92 0 0 1-.532 0l-.827-.871c.38-.045.769-.079 1.172-.104zm.807.955l.001-.002h.001zm-.357.01h-.006l-.191-.982c.061-.003.115-.01.174-.015.253 0 .5.009.748.015l-.367.97c-.122.003-.238.01-.358.012zm.688.417a.723.723 0 0 0-.137-.095c-.025-.012-.031-.03-.022-.055l.026-.067.484-.023-.29.234c-.016.015-.04.02-.06.006zm-1.369.068c.016.015.022.047.008.064-.039.044-.052.059-.083.113-.011.02-.037.024-.062.015l-1.4-.475c.431.023.866.034 1.3.034zm2.635 3.138a3.27 3.27 0 0 1-1.027.478c-.067-.009-.196-.11-.232-.257l-.338-1.765c-.006-.022.003-.05.026-.06a.842.842 0 0 0 .184-.082c.02-.015.046-.005.062.012l1.249 1.325c.122.14.118.299.076.348zm.221-4.375l-.87.704c-.221.014-.447.02-.673.03l.354-.96c.441.015.87.044 1.27.082-.02.052-.035.103-.078.144zm.527.13c.095.133.172.274.245.419-.383.054-.79.095-1.22.127l.609-.498c.153-.118.326-.093.364-.047zm-4.615-.203l.778.834a28.086 28.086 0 0 1-1.624-.063c-.04-.054-.062-.104-.05-.133.099-.201.22-.387.36-.561.172-.03.355-.052.536-.074zm2.978-5.303c.212.123.296.448.529.631.38.613 1.099.817 1.479 1.346-.129.01-.258 0-.383-.027-.249-.047-.347-.118-.555-.207-.11-.173-.388-.23-.605-.118-.173.03-.653.007-.972-.074.061-.49.552-.961.506-1.552zm-2.408-3.18c-.19-.246-.47-.622-.253-.879.159-.19.484-.041.674.042.16.081 1.428.74 1.773.832 2.559.616 5.792-.292 7.82 1.485.1.089.173.173.151.296-2.977-1.96-7.46.939-10.164-1.777zM32.05 9.68l-.002.001h.001zm-.855 4.036c-.26.184-.582.338-.79.45-.123-1.585.053-3.95 1.643-4.485-1.13 1.1-.984 2.743-.853 4.035zM22.81 19.28a3.22 3.22 0 0 0-.503-.566c.724-.037 1.314 0 1.67.14-.16.074-.59.232-1.167.426zm4.21-1.717c-.749.516-.396 1.124-.859 1.246-.168-.024-1.11.14-1.256.205-.318-.283-.64-.522-1.128-.645.927-.364 2.396-.724 3.242-.806zm-4.5 2.386c0 .051-.084.132-.14.154l.106-.035-1.712.618c-.018.008-.046-.014-.058-.03a1.637 1.637 0 0 0-.122-.141c-.02-.015-.034-.056-.026-.074l.148-.215a24.865 24.865 0 0 0 1.677-.499c.046.074.091.147.128.223zm.224 1.66c-.028.043-.153.058-.215.043l-1.662-.44c-.02-.004-.03-.037-.03-.058 0-.061-.005-.123-.013-.183-.005-.02.008-.065.026-.074l1.615-.586c.057-.02.169-.01.207.026a2.6 2.6 0 0 1 .123.752c0 .176-.02.352-.054.521zm-.967 1.331l-1.13-1.266c-.015-.011-.002-.044.01-.063.03-.043.057-.089.081-.136.01-.02.046-.047.07-.044l1.67.446c.051.015.137.07.156.118-.143.384-.36.735-.653 1.019-.046.026-.161-.03-.204-.074zm-4.281-.618c0-.05.084-.127.138-.151l1.593-.645c.016-.009.046.015.059.03.027.032.068.081.107.119.018.014.034.059.024.074l-.95 1.406c-.033.05-.138.104-.187.089a2.714 2.714 0 0 1-.781-.922zm-.262-1.666c.228.012.462.009.698.005l1.195.314c.015.004.027.038.027.059 0 .044.008.162.022.214 0 .02-.015.037-.034.044l-1.594.675c-.058.022-.174.02-.21-.018a2.596 2.596 0 0 1-.156-.847c0-.154.021-.3.046-.443zm-1.295-.43c-.15-.043-.115-.088-.025-.125.302-.115.64-.228.996-.339a3.422 3.422 0 0 0-.205.59 4.447 4.447 0 0 1-.766-.124zm4.05-1.564l-.003-.102c-.003-.062.046-.17.095-.18.29.007.567.06.827.146-.306.038-.61.082-.92.135zm1.713.293c.2.15.383.324.536.52-.413.134-.842.26-1.268.384l.551-.811c.03-.05.129-.104.181-.093zm-1.641 1.14l-.054-1.087c.47-.086.93-.156 1.37-.207a.375.375 0 0 1-.04.13l-.694 1.016c-.205.059-.395.103-.582.147zm-.698.438c-.003.01 0 .021-.006.03-.037.05-.07.103-.1.158-.01.02-.046.047-.07.044l-.562-.147c.24-.024.485-.045.74-.086zm.067-.302l-.779-.938a27.3 27.3 0 0 1 1.137-.242l.052 1.1c-.153.035-.28.058-.41.08zm.242-1.824c.046.017.092.111.092.168l.007.13c-.46.084-.91.18-1.342.285-.028-.054-.041-.117-.018-.146a2.862 2.862 0 0 1 1.256-.436zm-2.157 1.915c-.061-.018-.153-.098-.15-.148.087-.23.199-.447.343-.644.229-.063.465-.124.701-.183l.762.93-.035.005c-.493.059-.955.088-1.393.094l-.228-.059zm2.4 3.485a2.908 2.908 0 0 1-1.275-.343c-.031-.041-.02-.15.015-.2l.953-1.392c.01-.015.046-.015.068-.009.04.012.134.037.188.045.022 0 .062.03.062.048l.085 1.671c.003.06-.047.163-.098.177zm1.741-.536l.001-.002.002-.001zm-1.34.503c-.05-.015-.093-.11-.096-.17l-.08-1.657c-.002-.018.028-.037.047-.045.042-.014.16-.058.208-.085.018-.01.066-.015.081 0l1.134 1.262c.04.047.076.148.047.19a2.832 2.832 0 0 1-1.342.505zm27.928-2.997c-.244-.647-.953-2.446-1.457-4.066.305-.294.542-.141.745.665.194.65.428 1.187.605 1.73.235.546.413 1.273.593 1.656 0 0 .159.027.247.233.444 1.202.56 1.395.485 1.968.107.45.758.083.698.638h-1.381l.608-.005c-.419-.43-.122-1.071-.715-1.399-.081-.65-.12-1.11-.428-1.42zm-4.551-5.19c-.874-.42-.33-.068-.077-.25 1.384.61 2.081.469 3.117.349.149.182.352.352.352.594-1.267.344-2.252-.103-3.394-.692zm3.195-11.854c.279-.004.683.172 1.218-.062 0 0 .165.482.33 1.272-.4.321-.813.633-1.089.816-.288-.562-.52-1.156-.46-2.026zm.502-2.484c.05.037.01.186.006.237 0 .05-.233.156-.233.156s-.22-.162-.217-.212l-.01-.005c.035-.083.077-.163.125-.24.092-.03.279.029.33.064zm2.008 2.113c.03.172.104.369.21.516-.003.08-.456.483-.977.908-.128-.615-.26-1.039-.29-1.207.206-.142.765-.295 1.057-.217zm-.02-.613c.092-.037.35.059.455.086.064.014.04.147.007.265-.159.033-.407-.051-.44-.133-.047-.088-.111-.18-.02-.218zm-.264 8.122c.552.579 1.87 1.458 2.712 1.745l-2.44.434c.275-.994-.666-1.375-.273-2.179zM1.356 20.677c.058 1.998 1.745 3.588 3.807 3.589 2.061 0 3.75-1.59 3.808-3.588 0-.436-.092-.85-.236-1.24.439-.074.868-.163 1.29-.278.2-.052.192-.14.036-.185a16.452 16.452 0 0 0-1.778-.407 3.837 3.837 0 0 0-4.497-1.321c-.006-.003-.012-.012-.015-.015a1.091 1.091 0 0 1-.046-.998c.387-.612 1.247-.851 1.953-.91.238-.011.808.016.87.081.137.107.375.146.627.06.242.089.304.158.58.242 2.427.802 5.115 1.225 7.83.742.424.39.659 1.073.956 1.545.08.119.176-.089 1.514-.133a27.093 27.093 0 0 1 1.555-.003 3.377 3.377 0 0 0-2.47 1.503c-.836.258-1.482.505-1.724.647-.297.174-.352.27 0 .36.426.108.84.178 1.252.227a3.017 3.017 0 0 0-.052.502c0 1.81 1.513 3.276 3.38 3.276 1.866 0 3.38-1.466 3.38-3.276a3.17 3.17 0 0 0-.42-1.552c.425-.149.873-.312 1.348-.49.368.129.617.341.881.639.215.234.7.142.988.074.468-.119.54-.48.537-.891 0-.188.009-.372.1-.52.548-1.208 2.735-1.367 3.856-1.634 0 0-.587.683-1.002.834-.084 1.764-.781 3.298-.866 4.98.529.02.506.594.633.92-.147.31-.401 0-.633.105-.803-.431.19-1.126-.466-1.66.338-1.41.89-2.785.843-4.28-.21.02-.29.246-.378.41-.149 1.415-.57 2.706-.95 4.016.168.082.464.163.444.41-.509.307.02.802-.191 1.153h-5.218l-.58.505h8.003l.076-.286c-1.18-1.188-.735-2.97-.188-4.322l1.373-1.803c1.141-.431 1.839-1.783 3.043-2.214 0 .575-.74.822-1.142 1.148-.42.963-1.753 1.066-1.943 2.132.506.573 1.265.942 1.9 1.475.656.39.42 1.21.95 1.62.086.122 0 .307-.15.41-.556.128-.539.492-.203.795.214.193.46.446.432.541H30.76c0 .163.15.226.312.505h20.396c.153-.28-.18-.609-.322-.884-1.44-.527-1.433-1.848-1.517-3.303.015-.06-.083-.198-.067-.498-.215-.196-1.162-2.533-.731-4.361l.314-.602c.296-.411-.019-.631.191-1.06l4.299-.805c.076-.039.056-.208-.025-.286l-1.306.235c-1.037-.423-2.559-1.359-3.56-2.63.31-2.058.156-3.727-.054-4.842.628-.505 1.14-.983 1.14-.983.433.253.527.134.587-.003-.07-.077-.713-.342-.607-.612.406.104.496-.018.56-.238l-.286-.098h-.01L50.122 3c.083-.164.466-.009.613-.05.256-.152-.03-.38.055-.584-.598-.49-1.676-.505-2.33-.961-.201-.366-.284-.52-.496-.669-.217-.148-1.164-.233-1.34-.178-.174.06-.506.36-.506.36-.679.139-1.088-.073-1.555-.348 0 0 .1.52.634.74-.472.187-.68.573-.757 1.057-.65.128-.674.755-.59 1.04-.532.307-.48.716-.291 1.129-.475.309-.403.754-.268 1.095-.399.237 0 .897.061 1.283 1.145-.229 2.574 2.22 4.628 2.522.386-1.748-.098-2.605-.543-3.468a9.114 9.114 0 0 0 1.05-.722 15.01 15.01 0 0 1 .122 4.54c-.015-.014-.03-.026-.04-.04-.128 0-.257-.084-.361-.124.021.06.257.423.21.49 0 0-.665.426-1.984-.111-.353.799-4.883 2.763-4.883 2.763.17 1.212.764 2.017 1.377 2.673.973.698 2.012 1.058 3.239 1.305.257.644 1.088 2.79 1.165 3.134.082.344.28.344.28.344.118.155.506.838.549 1.166l.096 1.159c.041.264.398.065.466.291l-.166.779-13.569.003c.19-.921-.294-1.727-.042-2.547-.546-.92-2.026-1.556-1.775-2.765.72-.963 2.958-1.902 2.452-3.065 2.033-1 3.106.669 5.032.545.671-.035 1.419-.107 2.033-.282-.76-.639-1.486-1.577-1.869-2.417-4.036 1.575-7.962 2.872-12.338 3.732l-.338-.104c-.332.049-5.153 1.099-6.43 1.582a3.423 3.423 0 0 0-1.089-.406h.112c.41 0 1.034-.21 1.477-.36 1.873-.663 2.562-3.248 3.402-4.89.736 2.554 2.443 2.762 3.433 2.444l.091.802s.865-.03 1.514-.282c-.065-.151-.153-.557-.214-1.09.394-.198.607-.342.786-.443.054.606.092 1.178-.095 1.486l2.228-.577c.43-1.867 1.594-4.462 3.652-6.357-2.763-1.065-4.833.151-5.359.638-2.6.806-2.705 4.284-2.626 5.482-.45.086-2.342.722-3.237-2.451.521-1.218 1.51-2.573 2.62-3.63.097-.078-.015-.203-.237-.076-2.233 1.485-3.05 4.1-4.25 6.307-.94 1.37-2.21 2.113-4.115 2.035-2.378-.036-3.529-2.44-4.619-4.002-1.67-3.546-5.991-2.273-9.203-3.03-.18-.09-.536-1.114-1.048-1.076-.363.027-.021.39-.23.511-.403-.163-.741-.45-1.247-.368-.317.062-.403.389-.38.677.253 1.126 1.499 1.62 2.429 2.03.357.516.223 2.302-.074 2.915-.383.683-1.89.44-2.191 2.005-.058.318.015.595.15.855a3.782 3.782 0 0 0-1.437 1.277 18.33 18.33 0 0 0-1.845.517c-.153.053-.153.14.046.184.447.089.906.163 1.37.22a3.58 3.58 0 0 0-.17 1.034z"/></g></g></g></svg>
