<?xml version="1.0" encoding="UTF-8"?>
<svg role="img" focusable="false" aria-label="Hermès shop" width="15px" height="15px" viewBox="0 0 15 15" version="1.1" xmlns="http://www.w3.org/2000/svg" xmlns:xlink="http://www.w3.org/1999/xlink">
    <title>shop</title>
    <desc>Hermès shop icon</desc>
    <g  stroke="none" stroke-width="1" fill="none" fill-rule="evenodd">
        <g  transform="translate(-1001.000000, -14.000000)" fill="var(--grey2)">
            <g >
                <g >
                    <g >
                        <g  transform="translate(1001.000000, 14.000000)">
                            <g >
                                <path fill="var(--grey2)" d="M13.425,0 L1.668,0 L0.015,6.554 L0,6.676 C0,7.725 0.638,8.609 1.519,8.935 L1.519,14.999 L13.48,14.999 L13.48,8.935 C14.361,8.61 15,7.725 15,6.676 L13.425,0 Z M9.861,1 L10.494,6.728 C10.469,7.475 9.922,8.076 9.249,8.076 C8.561,8.076 8,7.45 7.999,6.678 L7.957,1.001 L9.861,1.001 L9.861,1 Z M6.957,0.999 L5.01,0.999 L4.506,6.733 C4.535,7.477 5.079,8.075 5.749,8.075 C6.438,8.075 6.999,7.447 6.999,6.675 L6.957,0.999 Z M1.001,6.734 L2.447,1 L4.006,1 L3.507,6.676 L3.5,6.676 C3.5,7.448 2.939,8.07500125 2.249,8.07500125 C1.578,8.076 1.028,7.479 1.001,6.734 Z M6.45,13.999 L8.55,13.999 L8.55,11.728 C8.55,11.15 8.079,10.678 7.5,10.678 C6.921,10.678 6.45,11.15 6.45,11.728 L6.45,13.999 Z M12.48,13.999 L9.6,13.999 L9.6,11.728 C9.6,10.572 8.658,9.628 7.5,9.628 C6.342,9.628 5.4,10.571 5.4,11.728 L5.4,13.999 L2.519,13.999 L2.519,9.046 C3.118,8.969 3.641,8.644 4,8.165 C4.413,8.716 5.039,9.075 5.749,9.075 C6.459,9.075 7.086,8.716 7.499,8.165 C7.912,8.716 8.539,9.075 9.249,9.075 C9.96,9.075 10.587,8.715 11,8.163 C11.359,8.642 11.882,8.968 12.48,9.046 L12.48,13.999 Z M11.501,6.678 C11.501,7.45 12.063,8.076 12.751,8.076 C13.423,8.076 13.975,7.477 13.999,6.732 L12.637,1.001 L10.868,1.001 L11.494,6.678 L11.499,6.678 L11.501,6.678 Z" ></path>
                            </g>
                        </g>
                    </g>
                </g>
            </g>
        </g>
    </g>
</svg>