<svg
  xmlns="http://www.w3.org/2000/svg"
  width="21"
  height="18"
  viewBox="0 0 21 18"
>
  <path
    fill="#444"
    d="M6.604 17.78c7.925 0 12.259-6.54 12.259-12.21 0-.186-.004-.371-.012-.555A8.746 8.746 0 0021 2.793a8.63 8.63 0 01-2.474.675 4.31 4.31 0 001.894-2.374 8.654 8.654 0 01-2.735 1.042A4.312 4.312 0 0014.54.78c-2.38 0-4.31 1.922-4.31 4.291 0 .337.038.665.112.979a12.248 12.248 0 01-8.88-4.484 4.284 4.284 0 001.334 5.73 4.29 4.29 0 01-1.952-.538v.055A4.298 4.298 0 004.3 11.02a4.337 4.337 0 01-1.946.074 4.311 4.311 0 004.025 2.98 8.667 8.667 0 01-5.351 1.838c-.348 0-.69-.02-1.028-.06a12.232 12.232 0 006.604 1.928"
  ></path>
</svg>