<?xml version="1.0" encoding="UTF-8"?>
<svg width="70px" height="35px" viewBox="0 0 70 35" version="1.1" xmlns="http://www.w3.org/2000/svg" xmlns:xlink="http://www.w3.org/1999/xlink">
    <!-- Generator: Sketch 64 (93537) - https://sketch.com -->
    <title>Shape</title>
    <desc>Created with Sketch.</desc>
    <g  stroke="none" stroke-width="1" fill="none" fill-rule="evenodd">
        <g  transform="translate(-528.000000, -2588.000000)" stroke="#444444" stroke-width="2">
            <g  transform="translate(-120.000000, 0.000000)">
                <g  transform="translate(107.000000, 2439.000000)">
                    <g  transform="translate(455.000000, 150.000000)">
                        <g  transform="translate(87.000000, 0.000000)">
                            <path d="M9.71428571,7.28571429 C5.69049682,7.28571429 2.42857143,10.5476397 2.42857143,14.5714286 C2.42857143,18.5952175 5.69049682,21.8571429 9.71428571,21.8571429 C13.7380746,21.8571429 17,18.5952175 17,14.5714286 C17,10.5476397 13.7380746,7.28571429 9.71428571,7.28571429 Z M19.4285714,34 C19.4285714,25.9857143 25.9857143,19.4285714 34,19.4285714 C42.0142857,19.4285714 48.5714286,25.9857143 48.5714286,34 M58.2857143,7.28571429 C54.2619254,7.28571429 51,10.5476397 51,14.5714286 C51,18.5952175 54.2619254,21.8571429 58.2857143,21.8571429 C62.3095032,21.8571429 65.5714286,18.5952175 65.5714286,14.5714286 C65.5714286,10.5476397 62.3095032,7.28571429 58.2857143,7.28571429 Z M34,0 C28.6349481,0 24.2857143,4.34923386 24.2857143,9.71428571 C24.2857143,15.0793376 28.6349481,19.4285714 34,19.4285714 C39.3650519,19.4285714 43.7142857,15.0793376 43.7142857,9.71428571 C43.7142857,4.34923386 39.3650519,0 34,0 Z M68,31.5714286 L68,31.5714286 C68,26.2285714 63.6285714,21.8571429 58.2857143,21.8571429 L58.2857143,21.8571429 C52.9428571,21.8571429 48.5714286,26.2285714 48.5714286,31.5714286 L48.5714286,34 M0,31.5714286 L0,31.5714286 C0,26.2285714 4.37142857,21.8571429 9.71428571,21.8571429 L9.71428571,21.8571429 C15.0571429,21.8571429 19.4285714,26.2285714 19.4285714,31.5714286 L19.4285714,34" ></path>
                        </g>
                    </g>
                </g>
            </g>
        </g>
    </g>
</svg>